<svg width="54" height="44" viewBox="0 0 54 44" fill="none" xmlns="http://www.w3.org/2000/svg">
<path d="M31.5352 8H38V14.3564L33.4282 18.9282L41.5858 27.0858C42.8457 28.3457 45 27.4534 45 25.6716V13.8203L45.0081 13.8284L47.8365 11L54 11V40.6797L51.1797 43.5L45 43.5L40.5947 39.0947L40.5894 39.1001L26.9946 25.5054L9 43.5L2.83654 43.5L0.00811458 40.6716L0 40.6797V11H6.17969L9 13.8203V25.6716C9 27.4534 11.1543 28.3457 12.4142 27.0858L20.4946 19.0054L15.8457 14.3564V8H22.3105L26.9053 12.5947L27 12.5L27.0176 12.5176L31.5352 8Z" fill="#6A61B1"/>
<path d="M30.9783 5.5C30.9532 5.51011 30.928 5.52036 30.9026 5.53076C30.1191 5.85188 29.1229 6.34132 28.4821 6.9821C27.8413 7.62287 27.3519 8.61905 27.0308 9.40263C27.0204 9.42801 27.0101 9.45325 27 9.47832C26.9899 9.45325 26.9796 9.42801 26.9692 9.40263C26.6481 8.61905 26.1587 7.62287 25.5179 6.9821C24.8771 6.34132 23.8809 5.85188 23.0974 5.53076C23.072 5.52036 23.0468 5.51011 23.0217 5.5C23.0468 5.48989 23.072 5.47964 23.0974 5.46924C23.8809 5.14812 24.8771 4.65868 25.5179 4.0179C26.1587 3.37713 26.6481 2.38095 26.9692 1.59737C26.9796 1.57199 26.9899 1.54675 27 1.52168C27.0101 1.54675 27.0204 1.57199 27.0308 1.59737C27.3519 2.38095 27.8413 3.37713 28.4821 4.0179C29.1229 4.65868 30.1191 5.14812 30.9026 5.46924C30.928 5.47964 30.9532 5.48989 30.9783 5.5Z" fill="#CFCDE5" stroke="#6A61B1"/>
</svg>
